<svg xmlns="http://www.w3.org/2000/svg" xmlns:xlink="http://www.w3.org/1999/xlink" width="280" zoomAndPan="magnify" viewBox="0 0 210 41.25" height="55" preserveAspectRatio="xMidYMid meet" version="1.0"><defs><filter x="0%" y="0%" width="100%" height="100%" id="c24354a4d2"><feColorMatrix values="0 0 0 0 1 0 0 0 0 1 0 0 0 0 1 0 0 0 1 0" color-interpolation-filters="sRGB"/></filter><g/><clipPath id="48b718ebf4"><path d="M 1.875 0 L 208.125 0 L 208.125 40.511719 L 1.875 40.511719 Z M 1.875 0 " clip-rule="nonzero"/></clipPath><clipPath id="c515e2cdb4"><path d="M 0.875 0 L 207.125 0 L 207.125 40.511719 L 0.875 40.511719 Z M 0.875 0 " clip-rule="nonzero"/></clipPath><clipPath id="1c912ca813"><path d="M 0.875 0 L 207.125 0 L 207.125 40.511719 L 0.875 40.511719 Z M 0.875 0 " clip-rule="nonzero"/></clipPath><radialGradient gradientTransform="matrix(1.000343, 0, 0, 0.999657, 1.123962, -4.190664)" gradientUnits="userSpaceOnUse" r="192.384382" cx="8.031881" id="870db1ca7d" cy="2.945858" fx="8.031881" fy="2.945858"><stop stop-opacity="1" stop-color="rgb(37.557983%, 64.607239%, 98.016357%)" offset="0"/><stop stop-opacity="1" stop-color="rgb(37.332153%, 64.353943%, 97.958374%)" offset="0.0078125"/><stop stop-opacity="1" stop-color="rgb(37.062073%, 64.051819%, 97.889709%)" offset="0.0195312"/><stop stop-opacity="1" stop-color="rgb(36.790466%, 63.748169%, 97.821045%)" offset="0.03125"/><stop stop-opacity="1" stop-color="rgb(36.51886%, 63.444519%, 97.750854%)" offset="0.0429688"/><stop stop-opacity="1" stop-color="rgb(36.247253%, 63.140869%, 97.68219%)" offset="0.0546875"/><stop stop-opacity="1" stop-color="rgb(35.977173%, 62.837219%, 97.613525%)" offset="0.0664062"/><stop stop-opacity="1" stop-color="rgb(35.705566%, 62.533569%, 97.544861%)" offset="0.078125"/><stop stop-opacity="1" stop-color="rgb(35.43396%, 62.231445%, 97.476196%)" offset="0.0898438"/><stop stop-opacity="1" stop-color="rgb(35.163879%, 61.927795%, 97.407532%)" offset="0.101562"/><stop stop-opacity="1" stop-color="rgb(34.892273%, 61.624146%, 97.337341%)" offset="0.113281"/><stop stop-opacity="1" stop-color="rgb(34.620667%, 61.320496%, 97.268677%)" offset="0.125"/><stop stop-opacity="1" stop-color="rgb(34.34906%, 61.016846%, 97.200012%)" offset="0.136719"/><stop stop-opacity="1" stop-color="rgb(34.078979%, 60.713196%, 97.131348%)" offset="0.148438"/><stop stop-opacity="1" stop-color="rgb(33.807373%, 60.411072%, 97.062683%)" offset="0.160156"/><stop stop-opacity="1" stop-color="rgb(33.535767%, 60.107422%, 96.994019%)" offset="0.171875"/><stop stop-opacity="1" stop-color="rgb(33.265686%, 59.803772%, 96.925354%)" offset="0.183594"/><stop stop-opacity="1" stop-color="rgb(32.99408%, 59.500122%, 96.855164%)" offset="0.195312"/><stop stop-opacity="1" stop-color="rgb(32.722473%, 59.196472%, 96.786499%)" offset="0.207031"/><stop stop-opacity="1" stop-color="rgb(32.450867%, 58.892822%, 96.717834%)" offset="0.21875"/><stop stop-opacity="1" stop-color="rgb(32.180786%, 58.590698%, 96.64917%)" offset="0.230469"/><stop stop-opacity="1" stop-color="rgb(31.90918%, 58.287048%, 96.580505%)" offset="0.242188"/><stop stop-opacity="1" stop-color="rgb(31.68335%, 58.033752%, 96.522522%)" offset="0.253906"/><stop stop-opacity="1" stop-color="rgb(31.50177%, 57.832336%, 96.476746%)" offset="0.261719"/><stop stop-opacity="1" stop-color="rgb(31.321716%, 57.629395%, 96.430969%)" offset="0.269531"/><stop stop-opacity="1" stop-color="rgb(31.140137%, 57.427979%, 96.385193%)" offset="0.277344"/><stop stop-opacity="1" stop-color="rgb(30.960083%, 57.225037%, 96.339417%)" offset="0.285156"/><stop stop-opacity="1" stop-color="rgb(30.778503%, 57.022095%, 96.29364%)" offset="0.292969"/><stop stop-opacity="1" stop-color="rgb(30.59845%, 56.820679%, 96.247864%)" offset="0.300781"/><stop stop-opacity="1" stop-color="rgb(30.41687%, 56.617737%, 96.202087%)" offset="0.308594"/><stop stop-opacity="1" stop-color="rgb(30.236816%, 56.416321%, 96.156311%)" offset="0.316406"/><stop stop-opacity="1" stop-color="rgb(30.056763%, 56.213379%, 96.110535%)" offset="0.324219"/><stop stop-opacity="1" stop-color="rgb(29.875183%, 56.011963%, 96.063232%)" offset="0.332031"/><stop stop-opacity="1" stop-color="rgb(29.695129%, 55.809021%, 96.017456%)" offset="0.339844"/><stop stop-opacity="1" stop-color="rgb(29.51355%, 55.607605%, 95.97168%)" offset="0.347656"/><stop stop-opacity="1" stop-color="rgb(29.333496%, 55.404663%, 95.925903%)" offset="0.355469"/><stop stop-opacity="1" stop-color="rgb(29.151917%, 55.201721%, 95.880127%)" offset="0.363281"/><stop stop-opacity="1" stop-color="rgb(28.971863%, 55.000305%, 95.834351%)" offset="0.371094"/><stop stop-opacity="1" stop-color="rgb(28.790283%, 54.797363%, 95.788574%)" offset="0.378906"/><stop stop-opacity="1" stop-color="rgb(28.610229%, 54.595947%, 95.742798%)" offset="0.386719"/><stop stop-opacity="1" stop-color="rgb(28.42865%, 54.393005%, 95.697021%)" offset="0.394531"/><stop stop-opacity="1" stop-color="rgb(28.248596%, 54.191589%, 95.649719%)" offset="0.402344"/><stop stop-opacity="1" stop-color="rgb(28.067017%, 53.988647%, 95.603943%)" offset="0.410156"/><stop stop-opacity="1" stop-color="rgb(27.886963%, 53.787231%, 95.558167%)" offset="0.417969"/><stop stop-opacity="1" stop-color="rgb(27.705383%, 53.58429%, 95.51239%)" offset="0.425781"/><stop stop-opacity="1" stop-color="rgb(27.52533%, 53.381348%, 95.466614%)" offset="0.433594"/><stop stop-opacity="1" stop-color="rgb(27.34375%, 53.179932%, 95.420837%)" offset="0.441406"/><stop stop-opacity="1" stop-color="rgb(27.163696%, 52.97699%, 95.375061%)" offset="0.449219"/><stop stop-opacity="1" stop-color="rgb(26.982117%, 52.775574%, 95.329285%)" offset="0.457031"/><stop stop-opacity="1" stop-color="rgb(26.802063%, 52.572632%, 95.283508%)" offset="0.464844"/><stop stop-opacity="1" stop-color="rgb(26.620483%, 52.371216%, 95.237732%)" offset="0.472656"/><stop stop-opacity="1" stop-color="rgb(26.44043%, 52.168274%, 95.19043%)" offset="0.480469"/><stop stop-opacity="1" stop-color="rgb(26.260376%, 51.965332%, 95.144653%)" offset="0.488281"/><stop stop-opacity="1" stop-color="rgb(26.078796%, 51.763916%, 95.098877%)" offset="0.496094"/><stop stop-opacity="1" stop-color="rgb(25.852966%, 51.51062%, 95.040894%)" offset="0.503906"/><stop stop-opacity="1" stop-color="rgb(25.58136%, 51.20697%, 94.972229%)" offset="0.515625"/><stop stop-opacity="1" stop-color="rgb(25.311279%, 50.90332%, 94.903564%)" offset="0.527344"/><stop stop-opacity="1" stop-color="rgb(25.039673%, 50.601196%, 94.8349%)" offset="0.539062"/><stop stop-opacity="1" stop-color="rgb(24.768066%, 50.297546%, 94.766235%)" offset="0.550781"/><stop stop-opacity="1" stop-color="rgb(24.49646%, 49.993896%, 94.696045%)" offset="0.5625"/><stop stop-opacity="1" stop-color="rgb(24.226379%, 49.690247%, 94.62738%)" offset="0.574219"/><stop stop-opacity="1" stop-color="rgb(23.954773%, 49.386597%, 94.558716%)" offset="0.585938"/><stop stop-opacity="1" stop-color="rgb(23.683167%, 49.082947%, 94.490051%)" offset="0.597656"/><stop stop-opacity="1" stop-color="rgb(23.413086%, 48.780823%, 94.421387%)" offset="0.609375"/><stop stop-opacity="1" stop-color="rgb(23.141479%, 48.477173%, 94.352722%)" offset="0.621094"/><stop stop-opacity="1" stop-color="rgb(22.915649%, 48.223877%, 94.294739%)" offset="0.632812"/><stop stop-opacity="1" stop-color="rgb(22.73407%, 48.022461%, 94.248962%)" offset="0.640625"/><stop stop-opacity="1" stop-color="rgb(22.554016%, 47.819519%, 94.203186%)" offset="0.648438"/><stop stop-opacity="1" stop-color="rgb(22.372437%, 47.618103%, 94.15741%)" offset="0.65625"/><stop stop-opacity="1" stop-color="rgb(22.192383%, 47.415161%, 94.111633%)" offset="0.664062"/><stop stop-opacity="1" stop-color="rgb(22.010803%, 47.212219%, 94.065857%)" offset="0.671875"/><stop stop-opacity="1" stop-color="rgb(21.83075%, 47.010803%, 94.020081%)" offset="0.679688"/><stop stop-opacity="1" stop-color="rgb(21.64917%, 46.807861%, 93.974304%)" offset="0.6875"/><stop stop-opacity="1" stop-color="rgb(21.469116%, 46.606445%, 93.927002%)" offset="0.695312"/><stop stop-opacity="1" stop-color="rgb(21.287537%, 46.403503%, 93.881226%)" offset="0.703125"/><stop stop-opacity="1" stop-color="rgb(21.107483%, 46.202087%, 93.835449%)" offset="0.710938"/><stop stop-opacity="1" stop-color="rgb(20.925903%, 45.999146%, 93.789673%)" offset="0.71875"/><stop stop-opacity="1" stop-color="rgb(20.74585%, 45.797729%, 93.743896%)" offset="0.726562"/><stop stop-opacity="1" stop-color="rgb(20.565796%, 45.594788%, 93.69812%)" offset="0.734375"/><stop stop-opacity="1" stop-color="rgb(20.384216%, 45.391846%, 93.652344%)" offset="0.742188"/><stop stop-opacity="1" stop-color="rgb(20.204163%, 45.19043%, 93.606567%)" offset="0.75"/><stop stop-opacity="1" stop-color="rgb(19.978333%, 44.937134%, 93.548584%)" offset="0.757812"/><stop stop-opacity="1" stop-color="rgb(19.706726%, 44.633484%, 93.479919%)" offset="0.769531"/><stop stop-opacity="1" stop-color="rgb(19.43512%, 44.329834%, 93.409729%)" offset="0.78125"/><stop stop-opacity="1" stop-color="rgb(19.163513%, 44.026184%, 93.341064%)" offset="0.792969"/><stop stop-opacity="1" stop-color="rgb(18.893433%, 43.72406%, 93.2724%)" offset="0.804688"/><stop stop-opacity="1" stop-color="rgb(18.667603%, 43.470764%, 93.215942%)" offset="0.816406"/><stop stop-opacity="1" stop-color="rgb(18.486023%, 43.269348%, 93.170166%)" offset="0.824219"/><stop stop-opacity="1" stop-color="rgb(18.305969%, 43.066406%, 93.12439%)" offset="0.832031"/><stop stop-opacity="1" stop-color="rgb(18.12439%, 42.863464%, 93.078613%)" offset="0.839844"/><stop stop-opacity="1" stop-color="rgb(17.944336%, 42.662048%, 93.031311%)" offset="0.847656"/><stop stop-opacity="1" stop-color="rgb(17.762756%, 42.459106%, 92.985535%)" offset="0.855469"/><stop stop-opacity="1" stop-color="rgb(17.582703%, 42.25769%, 92.939758%)" offset="0.863281"/><stop stop-opacity="1" stop-color="rgb(17.401123%, 42.054749%, 92.893982%)" offset="0.871094"/><stop stop-opacity="1" stop-color="rgb(17.175293%, 41.801453%, 92.835999%)" offset="0.878906"/><stop stop-opacity="1" stop-color="rgb(16.903687%, 41.499329%, 92.767334%)" offset="0.890625"/><stop stop-opacity="1" stop-color="rgb(16.633606%, 41.195679%, 92.698669%)" offset="0.902344"/><stop stop-opacity="1" stop-color="rgb(16.407776%, 40.942383%, 92.642212%)" offset="0.914062"/><stop stop-opacity="1" stop-color="rgb(16.226196%, 40.740967%, 92.59491%)" offset="0.921875"/><stop stop-opacity="1" stop-color="rgb(16.046143%, 40.538025%, 92.549133%)" offset="0.929688"/><stop stop-opacity="1" stop-color="rgb(15.864563%, 40.335083%, 92.503357%)" offset="0.9375"/><stop stop-opacity="1" stop-color="rgb(15.638733%, 40.083313%, 92.445374%)" offset="0.945312"/><stop stop-opacity="1" stop-color="rgb(15.412903%, 39.830017%, 92.388916%)" offset="0.957031"/><stop stop-opacity="1" stop-color="rgb(15.231323%, 39.628601%, 92.34314%)" offset="0.964844"/><stop stop-opacity="1" stop-color="rgb(15.005493%, 39.375305%, 92.285156%)" offset="0.972656"/><stop stop-opacity="1" stop-color="rgb(14.779663%, 39.122009%, 92.228699%)" offset="0.984375"/><stop stop-opacity="1" stop-color="rgb(14.599609%, 38.920593%, 92.181396%)" offset="0.992188"/><stop stop-opacity="1" stop-color="rgb(14.509583%, 38.819885%, 92.158508%)" offset="1"/></radialGradient><clipPath id="7d024548b4"><rect x="0" width="208" y="0" height="41"/></clipPath><clipPath id="dde752d284"><path d="M 0.875 0 L 207.125 0 L 207.125 40.511719 L 0.875 40.511719 Z M 0.875 0 " clip-rule="nonzero"/></clipPath><clipPath id="4c894cf94c"><rect x="0" width="208" y="0" height="41"/></clipPath><clipPath id="c4364c00f2"><rect x="0" width="208" y="0" height="41"/></clipPath><mask id="a524230193"><g filter="url(#c24354a4d2)"><g transform="matrix(1, 0, 0, 1, 0, 0.000000000000005234)"><g clip-path="url(#c4364c00f2)"><g clip-path="url(#dde752d284)"><g transform="matrix(1, 0, 0, 1, 0, 0.000000000000005234)"><g clip-path="url(#4c894cf94c)"><g fill="#000000" fill-opacity="1"><g transform="translate(9.040705, 23.053918)"><g><path d="M 6.4375 -0.359375 L 2.640625 -9.8125 C 2.609375 -9.925781 2.570312 -10.054688 2.53125 -10.203125 C 2.5 -10.347656 2.484375 -10.460938 2.484375 -10.546875 L 2.484375 -18.328125 C 2.484375 -18.429688 2.519531 -18.519531 2.59375 -18.59375 C 2.675781 -18.664062 2.765625 -18.703125 2.859375 -18.703125 L 4.171875 -18.703125 C 4.421875 -18.703125 4.546875 -18.578125 4.546875 -18.328125 L 4.546875 -10.953125 C 4.546875 -10.847656 4.5625 -10.722656 4.59375 -10.578125 C 4.625 -10.429688 4.65625 -10.3125 4.6875 -10.21875 L 7.96875 -2.078125 L 11.046875 -2.078125 L 14.3125 -10.21875 C 14.351562 -10.3125 14.382812 -10.429688 14.40625 -10.578125 C 14.4375 -10.722656 14.453125 -10.847656 14.453125 -10.953125 L 14.453125 -18.328125 C 14.453125 -18.578125 14.578125 -18.703125 14.828125 -18.703125 L 16.140625 -18.703125 C 16.390625 -18.703125 16.515625 -18.578125 16.515625 -18.328125 L 16.515625 -10.546875 C 16.515625 -10.460938 16.5 -10.347656 16.46875 -10.203125 C 16.445312 -10.054688 16.421875 -9.925781 16.390625 -9.8125 L 12.59375 -0.359375 C 12.5625 -0.265625 12.488281 -0.179688 12.375 -0.109375 C 12.269531 -0.0351562 12.160156 0 12.046875 0 L 6.953125 0 C 6.847656 0 6.742188 -0.0351562 6.640625 -0.109375 C 6.535156 -0.179688 6.46875 -0.265625 6.4375 -0.359375 Z M 6.4375 -0.359375 "/></g></g></g><g fill="#000000" fill-opacity="1"><g transform="translate(28.017846, 23.053918)"><g><path d="M 8.484375 -0.375 L 8.484375 -16.625 L 2.890625 -16.625 C 2.640625 -16.625 2.515625 -16.753906 2.515625 -17.015625 L 2.515625 -18.328125 C 2.515625 -18.578125 2.640625 -18.703125 2.890625 -18.703125 L 16.140625 -18.703125 C 16.390625 -18.703125 16.515625 -18.578125 16.515625 -18.328125 L 16.515625 -17.015625 C 16.515625 -16.753906 16.390625 -16.625 16.140625 -16.625 L 10.546875 -16.625 L 10.546875 -0.375 C 10.546875 -0.269531 10.503906 -0.179688 10.421875 -0.109375 C 10.347656 -0.0351562 10.265625 0 10.171875 0 L 8.859375 0 C 8.609375 0 8.484375 -0.125 8.484375 -0.375 Z M 8.484375 -0.375 "/></g></g></g><g fill="#000000" fill-opacity="1"><g transform="translate(47.022256, 23.053918)"><g><path d="M 3.59375 -18.703125 L 4.90625 -18.703125 C 5.164062 -18.703125 5.296875 -18.578125 5.296875 -18.328125 L 5.296875 -2.078125 L 15.953125 -2.078125 C 16.054688 -2.078125 16.144531 -2.035156 16.21875 -1.953125 C 16.289062 -1.867188 16.328125 -1.78125 16.328125 -1.6875 L 16.328125 -0.375 C 16.328125 -0.125 16.203125 0 15.953125 0 L 3.59375 0 C 3.507812 0 3.425781 -0.0351562 3.34375 -0.109375 C 3.257812 -0.179688 3.21875 -0.269531 3.21875 -0.375 L 3.21875 -18.328125 C 3.21875 -18.429688 3.257812 -18.519531 3.34375 -18.59375 C 3.425781 -18.664062 3.507812 -18.703125 3.59375 -18.703125 Z M 3.59375 -18.703125 "/></g></g></g><g fill="#000000" fill-opacity="1"><g transform="translate(66.026665, 23.053918)"><g><path d="M 2.859375 -0.375 L 2.859375 -1.6875 C 2.859375 -1.78125 2.894531 -1.867188 2.96875 -1.953125 C 3.039062 -2.035156 3.132812 -2.078125 3.25 -2.078125 L 8.484375 -2.078125 L 8.484375 -16.625 L 3.25 -16.625 C 2.988281 -16.625 2.859375 -16.753906 2.859375 -17.015625 L 2.859375 -18.328125 C 2.859375 -18.578125 2.988281 -18.703125 3.25 -18.703125 L 15.765625 -18.703125 C 16.015625 -18.703125 16.140625 -18.578125 16.140625 -18.328125 L 16.140625 -17.015625 C 16.140625 -16.753906 16.015625 -16.625 15.765625 -16.625 L 10.546875 -16.625 L 10.546875 -2.078125 L 15.765625 -2.078125 C 15.867188 -2.078125 15.957031 -2.035156 16.03125 -1.953125 C 16.101562 -1.867188 16.140625 -1.78125 16.140625 -1.6875 L 16.140625 -0.375 C 16.140625 -0.125 16.015625 0 15.765625 0 L 3.25 0 C 2.988281 0 2.859375 -0.125 2.859375 -0.375 Z M 2.859375 -0.375 "/></g></g></g><g fill="#000000" fill-opacity="1"><g transform="translate(85.031075, 23.053918)"><g><path d="M 6.4375 -0.359375 L 2.640625 -9.8125 C 2.609375 -9.925781 2.570312 -10.054688 2.53125 -10.203125 C 2.5 -10.347656 2.484375 -10.460938 2.484375 -10.546875 L 2.484375 -18.328125 C 2.484375 -18.429688 2.519531 -18.519531 2.59375 -18.59375 C 2.675781 -18.664062 2.765625 -18.703125 2.859375 -18.703125 L 4.171875 -18.703125 C 4.421875 -18.703125 4.546875 -18.578125 4.546875 -18.328125 L 4.546875 -10.953125 C 4.546875 -10.847656 4.5625 -10.722656 4.59375 -10.578125 C 4.625 -10.429688 4.65625 -10.3125 4.6875 -10.21875 L 7.96875 -2.078125 L 11.046875 -2.078125 L 14.3125 -10.21875 C 14.351562 -10.3125 14.382812 -10.429688 14.40625 -10.578125 C 14.4375 -10.722656 14.453125 -10.847656 14.453125 -10.953125 L 14.453125 -18.328125 C 14.453125 -18.578125 14.578125 -18.703125 14.828125 -18.703125 L 16.140625 -18.703125 C 16.390625 -18.703125 16.515625 -18.578125 16.515625 -18.328125 L 16.515625 -10.546875 C 16.515625 -10.460938 16.5 -10.347656 16.46875 -10.203125 C 16.445312 -10.054688 16.421875 -9.925781 16.390625 -9.8125 L 12.59375 -0.359375 C 12.5625 -0.265625 12.488281 -0.179688 12.375 -0.109375 C 12.269531 -0.0351562 12.160156 0 12.046875 0 L 6.953125 0 C 6.847656 0 6.742188 -0.0351562 6.640625 -0.109375 C 6.535156 -0.179688 6.46875 -0.265625 6.4375 -0.359375 Z M 6.4375 -0.359375 "/></g></g></g><g fill="#000000" fill-opacity="1"><g transform="translate(104.008217, 23.053918)"><g><path d="M 2.921875 -0.375 L 2.921875 -18.328125 C 2.921875 -18.578125 3.046875 -18.703125 3.296875 -18.703125 L 16 -18.703125 C 16.257812 -18.703125 16.390625 -18.578125 16.390625 -18.328125 L 16.390625 -17.015625 C 16.390625 -16.753906 16.257812 -16.625 16 -16.625 L 4.96875 -16.625 L 4.96875 -10.390625 L 14.53125 -10.390625 C 14.625 -10.390625 14.710938 -10.347656 14.796875 -10.265625 C 14.878906 -10.179688 14.921875 -10.09375 14.921875 -10 L 14.921875 -8.703125 C 14.921875 -8.585938 14.878906 -8.492188 14.796875 -8.421875 C 14.710938 -8.347656 14.625 -8.3125 14.53125 -8.3125 L 4.96875 -8.3125 L 4.96875 -2.078125 L 16 -2.078125 C 16.113281 -2.078125 16.207031 -2.035156 16.28125 -1.953125 C 16.351562 -1.867188 16.390625 -1.78125 16.390625 -1.6875 L 16.390625 -0.375 C 16.390625 -0.125 16.257812 0 16 0 L 3.296875 0 C 3.046875 0 2.921875 -0.125 2.921875 -0.375 Z M 2.921875 -0.375 "/></g></g></g><g fill="#000000" fill-opacity="1"><g transform="translate(122.985358, 23.053918)"><g><path d="M 6.4375 -0.359375 L 2.640625 -9.8125 C 2.609375 -9.925781 2.570312 -10.054688 2.53125 -10.203125 C 2.5 -10.347656 2.484375 -10.460938 2.484375 -10.546875 L 2.484375 -18.328125 C 2.484375 -18.429688 2.519531 -18.519531 2.59375 -18.59375 C 2.675781 -18.664062 2.765625 -18.703125 2.859375 -18.703125 L 4.171875 -18.703125 C 4.421875 -18.703125 4.546875 -18.578125 4.546875 -18.328125 L 4.546875 -10.953125 C 4.546875 -10.847656 4.5625 -10.722656 4.59375 -10.578125 C 4.625 -10.429688 4.65625 -10.3125 4.6875 -10.21875 L 7.96875 -2.078125 L 11.046875 -2.078125 L 14.3125 -10.21875 C 14.351562 -10.3125 14.382812 -10.429688 14.40625 -10.578125 C 14.4375 -10.722656 14.453125 -10.847656 14.453125 -10.953125 L 14.453125 -18.328125 C 14.453125 -18.578125 14.578125 -18.703125 14.828125 -18.703125 L 16.140625 -18.703125 C 16.390625 -18.703125 16.515625 -18.578125 16.515625 -18.328125 L 16.515625 -10.546875 C 16.515625 -10.460938 16.5 -10.347656 16.46875 -10.203125 C 16.445312 -10.054688 16.421875 -9.925781 16.390625 -9.8125 L 12.59375 -0.359375 C 12.5625 -0.265625 12.488281 -0.179688 12.375 -0.109375 C 12.269531 -0.0351562 12.160156 0 12.046875 0 L 6.953125 0 C 6.847656 0 6.742188 -0.0351562 6.640625 -0.109375 C 6.535156 -0.179688 6.46875 -0.265625 6.4375 -0.359375 Z M 6.4375 -0.359375 "/></g></g></g><g fill="#000000" fill-opacity="1"><g transform="translate(141.9625, 23.053918)"><g><path d="M 2.859375 -0.375 L 2.859375 -1.6875 C 2.859375 -1.78125 2.894531 -1.867188 2.96875 -1.953125 C 3.039062 -2.035156 3.132812 -2.078125 3.25 -2.078125 L 8.484375 -2.078125 L 8.484375 -16.625 L 3.25 -16.625 C 2.988281 -16.625 2.859375 -16.753906 2.859375 -17.015625 L 2.859375 -18.328125 C 2.859375 -18.578125 2.988281 -18.703125 3.25 -18.703125 L 15.765625 -18.703125 C 16.015625 -18.703125 16.140625 -18.578125 16.140625 -18.328125 L 16.140625 -17.015625 C 16.140625 -16.753906 16.015625 -16.625 15.765625 -16.625 L 10.546875 -16.625 L 10.546875 -2.078125 L 15.765625 -2.078125 C 15.867188 -2.078125 15.957031 -2.035156 16.03125 -1.953125 C 16.101562 -1.867188 16.140625 -1.78125 16.140625 -1.6875 L 16.140625 -0.375 C 16.140625 -0.125 16.015625 0 15.765625 0 L 3.25 0 C 2.988281 0 2.859375 -0.125 2.859375 -0.375 Z M 2.859375 -0.375 "/></g></g></g><g fill="#000000" fill-opacity="1"><g transform="translate(160.96691, 23.053918)"><g><path d="M 2.921875 -0.375 L 2.921875 -18.328125 C 2.921875 -18.578125 3.046875 -18.703125 3.296875 -18.703125 L 16 -18.703125 C 16.257812 -18.703125 16.390625 -18.578125 16.390625 -18.328125 L 16.390625 -17.015625 C 16.390625 -16.753906 16.257812 -16.625 16 -16.625 L 4.96875 -16.625 L 4.96875 -10.390625 L 14.53125 -10.390625 C 14.625 -10.390625 14.710938 -10.347656 14.796875 -10.265625 C 14.878906 -10.179688 14.921875 -10.09375 14.921875 -10 L 14.921875 -8.703125 C 14.921875 -8.585938 14.878906 -8.492188 14.796875 -8.421875 C 14.710938 -8.347656 14.625 -8.3125 14.53125 -8.3125 L 4.96875 -8.3125 L 4.96875 -2.078125 L 16 -2.078125 C 16.113281 -2.078125 16.207031 -2.035156 16.28125 -1.953125 C 16.351562 -1.867188 16.390625 -1.78125 16.390625 -1.6875 L 16.390625 -0.375 C 16.390625 -0.125 16.257812 0 16 0 L 3.296875 0 C 3.046875 0 2.921875 -0.125 2.921875 -0.375 Z M 2.921875 -0.375 "/></g></g></g><g fill="#000000" fill-opacity="1"><g transform="translate(179.944051, 23.053918)"><g><path d="M 15.046875 -18.328125 C 15.066406 -18.410156 15.117188 -18.492188 15.203125 -18.578125 C 15.285156 -18.660156 15.378906 -18.703125 15.484375 -18.703125 L 16.765625 -18.703125 C 16.859375 -18.703125 16.941406 -18.660156 17.015625 -18.578125 C 17.085938 -18.492188 17.125 -18.410156 17.125 -18.328125 L 15.703125 -0.375 C 15.703125 -0.269531 15.660156 -0.179688 15.578125 -0.109375 C 15.492188 -0.0351562 15.398438 0 15.296875 0 L 13.65625 0 C 13.40625 0 13.21875 -0.109375 13.09375 -0.328125 L 9.515625 -6.40625 L 5.9375 -0.328125 C 5.8125 -0.109375 5.625 0 5.375 0 L 3.734375 0 C 3.628906 0 3.535156 -0.0351562 3.453125 -0.109375 C 3.367188 -0.179688 3.328125 -0.269531 3.328125 -0.375 L 1.90625 -18.328125 C 1.882812 -18.410156 1.910156 -18.492188 1.984375 -18.578125 C 2.054688 -18.660156 2.148438 -18.703125 2.265625 -18.703125 L 3.546875 -18.703125 C 3.648438 -18.703125 3.738281 -18.660156 3.8125 -18.578125 C 3.882812 -18.492188 3.929688 -18.410156 3.953125 -18.328125 L 5.15625 -2.75 L 8.390625 -8.53125 C 8.523438 -8.75 8.71875 -8.859375 8.96875 -8.859375 L 10.0625 -8.859375 C 10.3125 -8.859375 10.503906 -8.75 10.640625 -8.53125 L 13.875 -2.75 Z M 15.046875 -18.328125 "/></g></g></g></g></g></g></g></g></g></mask><clipPath id="597eeb03f0"><path d="M 0.875 0 L 207.125 0 L 207.125 40.511719 L 0.875 40.511719 Z M 0.875 0 " clip-rule="nonzero"/></clipPath><clipPath id="e3fe7c7efe"><rect x="0" width="208" y="0" height="41"/></clipPath><clipPath id="ca0f3f3c1f"><rect x="0" width="208" y="0" height="41"/></clipPath><clipPath id="557ccbb817"><path d="M 26.035156 11.78125 L 91.59375 11.78125 L 91.59375 39.035156 L 26.035156 39.035156 Z M 26.035156 11.78125 " clip-rule="nonzero"/></clipPath></defs><g clip-path="url(#48b718ebf4)"><path fill="#ffffff" d="M 1.875 0 L 208.125 0 L 208.125 40.511719 L 1.875 40.511719 Z M 1.875 0 " fill-opacity="1" fill-rule="nonzero"/><path fill="#2a2d33" d="M 1.875 0 L 208.125 0 L 208.125 40.511719 L 1.875 40.511719 Z M 1.875 0 " fill-opacity="1" fill-rule="nonzero"/><g transform="matrix(1, 0, 0, 1, 1, 0.000000000000005234)"><g clip-path="url(#ca0f3f3c1f)"><g clip-path="url(#c515e2cdb4)"><g mask="url(#a524230193)"><g transform="matrix(1, 0, 0, 1, 0, 0.000000000000005234)"><g clip-path="url(#e3fe7c7efe)"><g clip-path="url(#597eeb03f0)"><path fill="url(#870db1ca7d)" d="M 0.875 0 L 0.875 40.511719 L 207.125 40.511719 L 207.125 0 Z M 0.875 0 " fill-rule="nonzero"/></g></g></g></g></g></g></g></g><g clip-path="url(#557ccbb817)"><path fill="#ffffff" d="M 38.816406 28.738281 C 38.523438 29.242188 38.332031 29.640625 38.082031 29.984375 C 37.957031 30.164062 37.726562 30.371094 37.542969 30.371094 C 33.773438 30.394531 30.003906 30.386719 26.234375 30.378906 C 26.179688 30.378906 26.125 30.347656 26.039062 30.320312 L 26.039062 29.253906 L 26.738281 29.253906 C 30.023438 29.253906 33.308594 29.246094 36.59375 29.265625 C 37.070312 29.269531 37.386719 29.136719 37.601562 28.65625 C 37.816406 28.164062 38.050781 27.675781 38.355469 27.246094 C 38.523438 27.007812 38.867188 26.738281 39.097656 26.769531 C 39.316406 26.800781 39.601562 27.171875 39.671875 27.449219 C 40.25 29.800781 40.789062 32.164062 41.339844 34.519531 C 41.394531 34.761719 41.464844 34.996094 41.652344 35.226562 C 41.679688 35.074219 41.722656 34.921875 41.734375 34.769531 C 42.425781 27.378906 43.117188 19.992188 43.816406 12.605469 C 43.839844 12.324219 44.054688 11.921875 44.269531 11.835938 C 44.722656 11.65625 44.953125 11.984375 45.015625 12.480469 C 45.230469 14.226562 45.460938 15.964844 45.6875 17.707031 C 46.242188 21.898438 46.792969 26.089844 47.347656 30.28125 C 47.367188 30.425781 47.40625 30.570312 47.464844 30.886719 C 47.652344 30.609375 47.78125 30.441406 47.878906 30.257812 C 48.71875 28.699219 49.539062 27.128906 50.402344 25.585938 C 50.558594 25.304688 50.933594 24.910156 51.113281 24.957031 C 51.378906 25.03125 51.644531 25.421875 51.761719 25.738281 C 52.105469 26.6875 52.398438 27.660156 52.660156 28.640625 C 52.792969 29.136719 53.035156 29.273438 53.484375 29.265625 C 54.691406 29.238281 55.902344 29.257812 57.109375 29.257812 L 91.597656 29.257812 L 91.597656 30.394531 L 90.910156 30.394531 C 78.195312 30.394531 65.476562 30.398438 52.761719 30.40625 C 52.210938 30.40625 51.96875 30.191406 51.824219 29.65625 C 51.59375 28.789062 51.304688 27.9375 50.992188 26.917969 C 50.773438 27.253906 50.628906 27.445312 50.511719 27.660156 C 49.65625 29.257812 48.8125 30.863281 47.945312 32.453125 C 47.824219 32.679688 47.625 32.925781 47.410156 33.015625 C 46.9375 33.210938 46.632812 32.933594 46.542969 32.277344 C 46.175781 29.527344 45.816406 26.777344 45.457031 24.023438 C 45.210938 22.175781 44.964844 20.328125 44.71875 18.480469 C 44.695312 18.296875 44.636719 18.121094 44.59375 17.9375 L 44.4375 17.929688 C 44.402344 18.121094 44.347656 18.308594 44.332031 18.5 C 43.710938 25.128906 43.09375 31.761719 42.480469 38.394531 C 42.476562 38.4375 42.46875 38.480469 42.460938 38.523438 C 42.414062 38.902344 42.453125 39.335938 41.929688 39.386719 C 41.371094 39.441406 41.269531 39.015625 41.167969 38.578125 C 40.828125 37.105469 40.484375 35.632812 40.144531 34.15625 C 39.777344 32.578125 39.414062 30.996094 39.046875 29.417969 C 39.003906 29.238281 38.929688 29.070312 38.816406 28.738281 Z M 38.816406 28.738281 " fill-opacity="1" fill-rule="nonzero"/></g></svg>